<svg xmlns="http://www.w3.org/2000/svg" width="32" height="32"><path d="M 8.5 31.5 C 4.082 31.5 0.5 27.918 0.5 23.5 L 0.5 8.5 C 0.5 4.082 4.082 0.5 8.5 0.5 L 23.5 0.5 C 27.918 0.5 31.5 4.082 31.5 8.5 L 31.5 23.5 C 31.5 27.918 27.918 31.5 23.5 31.5 Z" fill="rgb(255,255,255)" stroke="#000" stroke-miterlimit="10"></path><path d="M 8.342 12.757 C 8.612 12.418 8.796 11.964 8.748 11.5 C 8.352 11.52 7.868 11.761 7.588 12.1 C 7.338 12.39 7.115 12.863 7.173 13.308 C 7.618 13.346 8.062 13.086 8.343 12.757 M 8.743 13.395 C 8.097 13.356 7.548 13.761 7.24 13.761 C 6.932 13.761 6.46 13.414 5.95 13.423 C 5.274 13.44 4.657 13.814 4.33 14.406 C 3.637 15.602 4.148 17.376 4.822 18.349 C 5.15 18.831 5.545 19.361 6.065 19.342 C 6.556 19.322 6.749 19.024 7.346 19.024 C 7.943 19.024 8.116 19.342 8.636 19.332 C 9.176 19.322 9.514 18.85 9.841 18.368 C 10.217 17.819 10.371 17.288 10.381 17.26 C 10.371 17.25 9.341 16.855 9.331 15.67 C 9.321 14.677 10.14 14.204 10.178 14.175 C 9.716 13.491 8.993 13.414 8.743 13.395 M 14.71 12 C 16.113 12 17.09 12.967 17.09 14.375 C 17.09 15.788 16.093 16.76 14.675 16.76 L 13.121 16.76 L 13.121 19.23 L 12 19.23 L 12 12 Z M 13.121 15.818 L 14.409 15.818 C 15.386 15.818 15.942 15.292 15.942 14.38 C 15.942 13.468 15.386 12.947 14.414 12.947 L 13.121 12.947 Z M 17.368 17.732 C 17.368 16.805 18.075 16.274 19.378 16.194 L 20.776 16.109 L 20.776 15.708 C 20.776 15.122 20.39 14.801 19.703 14.801 C 19.137 14.801 18.726 15.091 18.641 15.538 L 17.63 15.538 C 17.66 14.601 18.542 13.919 19.734 13.919 C 21.017 13.919 21.854 14.591 21.854 15.633 L 21.854 19.231 L 20.817 19.231 L 20.817 18.364 L 20.792 18.364 C 20.496 18.93 19.845 19.286 19.138 19.286 C 18.096 19.286 17.369 18.664 17.369 17.732 Z M 20.776 17.266 L 20.776 16.86 L 19.528 16.94 C 18.826 16.986 18.461 17.246 18.461 17.702 C 18.461 18.143 18.841 18.429 19.438 18.429 C 20.199 18.429 20.776 17.943 20.776 17.266 Z M 22.806 21.165 L 22.806 20.298 C 22.876 20.308 23.047 20.318 23.137 20.318 C 23.633 20.318 23.914 20.108 24.084 19.566 L 24.184 19.246 L 22.285 13.984 L 23.458 13.984 L 24.781 18.254 L 24.806 18.254 L 26.129 13.984 L 27.271 13.984 L 25.301 19.511 C 24.851 20.779 24.335 21.195 23.242 21.195 C 23.157 21.195 22.882 21.185 22.807 21.165 Z" fill="rgb(0,0,0)"></path></svg>