<svg xmlns="http://www.w3.org/2000/svg" viewBox="0 0 88 88"><defs><style>.cls-1{fill:#e664a5;}.cls-2{fill:#fff;}.cls-3{fill:#c06;}</style></defs><g id="Layer_2" data-name="Layer 2"><g id="Layer_1-2" data-name="Layer 1"><circle class="cls-1" cx="44" cy="44" r="44"/><path class="cls-2" d="M20.7,26.5V61.4a3,3,0,0,0,3,3H44.6c15.8,0,22.6-8.8,22.6-20.5S60.4,23.4,44.6,23.4H23.8A3.25,3.25,0,0,0,20.7,26.5Z"/><path class="cls-3" d="M34.7,32.1V57.9H45.9c10.2,0,14.6-5.8,14.6-13.9,0-7.8-4.4-13.8-14.6-13.8H36.6A1.84,1.84,0,0,0,34.7,32.1Z"/><path d="M44.6,61.7H26.5a2.9,2.9,0,0,1-2.9-2.9V29.2a2.9,2.9,0,0,1,2.9-2.9H44.6c17.2,0,19.8,11.1,19.8,17.7C64.4,55.4,57.4,61.7,44.6,61.7ZM26.5,27.3a1.9,1.9,0,0,0-1.9,1.9V58.8a1.9,1.9,0,0,0,1.9,1.9H44.6c12.1,0,18.8-6,18.8-16.8,0-14.5-11.8-16.7-18.8-16.7l-18.1.1Z"/><circle cx="29.6" cy="43.6" r="2.8"/><path d="M31.8,57.9h0a4.27,4.27,0,0,1-4.3-4.3V50.2A2.22,2.22,0,0,1,29.7,48h0a2.22,2.22,0,0,1,2.2,2.2l-.1,7.7Z"/><path class="cls-2" d="M46.91,40.41v1.14H43.66v1.33h3v1h-3v1.5H47v1.15H42.3V40.4h4.61Z"/><path class="cls-2" d="M51.57,40.41l2.31,6.18H52.47L52,45.22H49.68l-.49,1.37H47.82l2.33-6.18Zm.07,3.79-.77-2.27h0l-.8,2.27Z"/><path class="cls-2" d="M56.09,40.41v5h3v1.14H54.73V40.41Z"/><path class="cls-2" d="M36,46.61V40.39l2.44,0a3,3,0,0,1,2.11.82,3.1,3.1,0,0,1,.87,2.27,2.91,2.91,0,0,1-2.85,3.17Zm1.31-4.92v3.63h1.25c.72,0,1.55-.51,1.55-1.87a1.8,1.8,0,0,0-.48-1.34,1.82,1.82,0,0,0-1.24-.44Z"/></g></g></svg>