<svg width="88" height="88" viewBox="0 0 88 88" fill="none" xmlns="http://www.w3.org/2000/svg">
<mask id="mask0" mask-type="alpha" maskUnits="userSpaceOnUse" x="0" y="0" width="88" height="88">
<circle cx="44" cy="44" r="44" fill="#222222"/>
</mask>
<g mask="url(#mask0)">
<circle cx="44" cy="44" r="44" fill="#FF6200"/>
<path fill-rule="evenodd" clip-rule="evenodd" d="M29.1724 93.7216C27.7598 93.7216 28.1616 96.0207 27.7598 97.0652C27.5573 97.2735 27.3486 97.69 27.5573 97.8999H30.5789C30.5789 97.8999 30.7814 96.0207 30.7814 95.6041C30.5789 95.1843 29.9715 94.1381 29.1724 93.7216ZM32.9656 77.1502C31.9213 76.3387 30.2483 75.5257 27.7396 74.711C27.1124 74.5081 25.6495 74.711 25.0207 74.711C23.3444 77.5559 22.7236 80.2011 21.4677 83.2505C21.2543 83.8639 20.8373 85.0843 20.8373 85.0843C19.7978 84.4757 18.7472 84.0699 17.6981 84.0699C16.0219 84.0699 14.7691 84.6785 14.1451 86.3046C13.5227 86.1018 12.6854 85.6961 11.6396 85.8957C10.1799 86.1018 8.91907 86.9164 8.29027 88.1352C7.66629 88.9467 7.45616 89.7613 7.66629 90.576C6.62365 90.9833 5.98684 92.0008 5.57299 92.8123C5.15753 94.4384 6.62365 97.2897 7.24923 97.8999H9.33933C8.91907 96.0693 8.08335 95.2547 8.71054 93.4241C9.13241 92.4066 10.5921 92.0008 11.0124 91.7948C11.0124 90.9833 9.96331 90.3731 10.1799 89.5553C10.5921 88.5441 11.8465 88.5442 13.1025 88.7438C12.8923 89.9674 12.6854 91.5919 12.4753 93.218C12.2651 95.0518 13.3126 97.8999 13.3126 97.8999H15.4011H15.6112C15.4011 97.2897 15.1926 96.6779 15.1926 96.0693C14.9888 95.4575 14.9888 95.0518 14.9888 94.4384C15.1926 93.627 15.1926 92.8123 15.1926 92.2069C17.2843 91.1862 16.6555 92.6094 17.0709 93.0152C17.0709 93.0152 17.9147 91.1862 16.8656 90.3731C16.6555 90.1703 15.4011 90.3731 15.4011 90.1703C15.4011 89.9674 15.6112 89.3556 15.8181 88.7438C16.2416 87.9292 16.4485 87.7295 16.8656 87.1177C17.0709 86.9164 17.6981 86.9164 18.5402 87.1177C18.7472 87.1177 19.7978 87.3206 20.4202 87.5234C20.2101 88.1352 19.3744 89.3556 19.1706 89.9674C18.3349 92.4066 18.3349 95.2547 18.5402 97.8999H20.8373C20.8373 96.4719 20.6303 94.8457 20.8373 93.4241C21.2543 91.5919 21.8783 91.3891 22.0965 91.3891C22.5071 91.3891 22.9274 91.7948 23.1439 92.2069C23.5562 94.2356 22.3034 96.0693 22.3034 97.8999H23.9764C23.9764 97.8999 24.6068 97.6954 24.8137 97.0868C25.2292 95.8633 26.0665 94.6397 26.2799 93.4241C26.4836 92.4066 26.0665 91.5919 25.4361 90.3731C24.8137 89.5553 24.1865 88.9467 22.7236 87.9292C22.3034 87.1177 22.7236 86.1018 22.7236 86.1018C22.7236 86.3046 23.5562 85.8957 23.9764 85.8957C25.6495 86.3046 26.0665 86.3046 26.9022 86.7104C27.5294 86.9164 28.3635 87.3206 28.9923 87.7295C29.6195 88.1352 30.2483 89.3556 30.8755 90.7789C30.8755 90.7789 31.2926 88.1352 31.2926 87.3206C30.4616 86.5107 29.6195 85.6961 28.3635 85.0843C27.3129 84.2696 25.0207 83.661 23.9764 83.2505C23.9764 83.2505 24.3935 82.6419 24.3935 82.2362C25.6495 82.0301 27.1124 82.0301 27.7396 82.2362C29.8329 82.848 32.3384 84.0699 33.3875 84.8814C33.3875 84.8814 33.8013 84.0699 33.8013 83.661C33.8013 83.661 30.8755 81.8304 31.0824 81.2186C30.2483 80.6101 29.6195 79.9983 28.7854 79.7938C27.5294 79.5941 25.0207 79.3913 25.0207 79.3913C25.0207 79.3913 25.6495 78.5798 26.2799 77.9648H27.9529C28.7854 77.9648 30.8755 78.5798 32.1283 79.1884C34.0147 79.9983 35.0541 80.6101 35.2674 81.0158C35.4711 80.404 35.6845 79.5941 35.8978 79.1884C33.5944 78.3737 33.8013 77.5559 32.9656 77.1502ZM28.2618 71.555C28.4658 70.9326 28.2618 70.5177 28.4658 69.8921C28.4658 69.4771 28.4658 68.4382 28.6746 67.8158C28.2618 67.6051 27.4299 68.0233 26.8195 68.0233C26.2011 68.0233 24.762 68.0233 24.762 68.2308C24.966 68.6489 24.966 69.0622 25.17 69.4771C25.3756 69.8921 25.5796 70.307 25.5796 71.3508C25.5796 71.9732 25.79 72.5988 25.5796 73.427C25.5796 73.427 28.2618 71.9732 28.2618 71.555ZM25.6801 66.6461C26.0975 66.034 27.3447 64.8145 27.7717 64.4054C27.3447 63.9994 27.1441 63.3873 26.9338 62.9813C26.0975 62.9813 22.9562 64.1992 22.9562 64.1992C23.5854 65.2189 24.006 66.2402 24.4233 67.458C24.8438 67.2551 25.2596 67.0521 25.6801 66.6461ZM33.5678 67.69H32.33C32.33 67.69 31.919 69.2828 31.919 70.4794C31.715 71.0793 31.5032 71.4771 31.5032 71.676C31.0922 72.4732 30.8882 72.6721 30.4804 73.6698C31.0922 73.8687 31.715 73.4709 32.1229 73.4709C32.5339 73.272 33.152 73.0699 33.3638 72.8742C33.5678 72.6721 34.1859 71.2751 34.393 70.8804V69.4849C34.1859 69.0839 34.393 68.2867 34.393 67.69C34.1859 67.2891 33.7717 67.488 33.5678 67.69ZM44.9269 82.679C44.7166 82.4703 44.7166 82.0497 44.4982 81.6356C44.0778 80.377 44.2913 79.7494 44.0778 78.5007H42.3779C41.9509 78.7061 41.7374 78.5007 41.3153 78.7061C41.3153 79.544 41.5271 80.1684 42.1644 81.215C42.7984 82.4703 44.9269 82.679 44.9269 82.679ZM23.3156 63.2797C23.3156 63.2797 23.9644 62.8782 23.9644 62.4671C25.0473 61.2512 26.3465 60.233 26.5678 60.037C26.1286 59.0156 25.914 58.8132 25.2619 58.2061C25.0473 58.4085 23.9644 59.0156 23.7431 59.4235C23.3156 59.6259 22.8798 59.8283 22.6552 60.037C22.6552 60.4418 22.8798 60.6409 23.091 61.0489C23.091 61.4536 23.3156 62.4671 23.3156 63.2797ZM39.7194 70.3456C39.7194 70.1441 39.0659 70.1441 38.6368 70.1441C38.1995 70.1441 37.7737 70.3456 37.3314 70.3456C36.899 70.9438 36.6845 71.5388 36.4683 72.3354C36.2537 72.932 35.818 73.3288 35.5969 73.7255C35.5969 73.7255 37.5525 73.3288 37.9849 73.3288C38.6368 72.932 39.0659 72.7306 39.5016 71.9356C39.7194 71.3374 39.939 71.1421 39.7194 70.3456ZM66.1789 86.5285C65.7605 86.3227 61.7565 84.4966 61.125 84.4966C59.8603 84.6991 57.7589 84.6991 56.4878 85.31C56.2826 84.6991 56.0743 83.6832 56.4878 83.074C56.6961 82.6657 58.8072 82.6657 59.4371 82.6657C61.7565 82.8714 63.018 83.2733 63.6495 83.2733C64.2826 83.8857 64.9174 83.8857 65.1258 83.8857C65.1258 83.8857 64.9174 82.6657 64.7026 82.2606C63.8643 81.8555 63.018 81.6529 62.3848 81.4504C61.3333 81.0421 60.915 80.8363 59.2304 80.637C58.602 80.637 58.602 80.8363 57.3374 80.8363C57.3374 80.637 57.5457 80.4313 57.7589 80.2287C58.1724 79.6226 58.602 79.2175 59.022 78.8093H62.3848C63.2328 79.0118 63.6495 79.2175 64.7026 79.6226C65.3309 79.6226 64.7026 78.6099 64.7026 77.9959C64.4942 77.7901 64.2826 77.5876 63.8643 77.385C63.018 77.1825 62.3848 76.9799 61.5417 76.5717C60.915 76.3723 59.6551 75.9656 58.602 76.1682C57.5457 76.5717 57.5457 76.3723 56.6961 76.7774C55.6495 78.2016 55.018 79.822 54.388 81.4504C54.388 81.8555 53.3333 84.2908 53.3333 84.6991C53.3333 84.9017 53.1282 85.31 53.1282 85.31C52.2802 85.1042 48.491 84.4966 47.4411 85.5093C47.0244 85.9144 46.598 86.3227 45.9616 87.5396C45.1217 86.9335 44.4886 86.7278 43.6487 86.7278C42.5924 86.7278 41.3341 87.3371 40.7026 88.3498C40.7026 88.5587 39.018 91.6017 39.2263 94.4438C39.4379 96.0722 40.0711 96.6798 40.911 97.8999H43.232C43.0204 97.0881 42.5924 96.0722 42.1756 94.8505C41.9641 93.8362 42.3872 92.01 42.5924 90.3849C42.5924 90.3849 43.232 89.9798 43.8571 89.774C44.2835 89.3689 44.4886 89.5683 45.1217 89.5683C45.3366 89.5683 45.3366 89.774 45.3366 89.774C44.4886 90.5874 44.4886 91.3992 44.2835 92.6177C44.2835 93.2253 45.1217 96.2747 45.9616 97.8999H47.6527C47.6527 97.8999 47.2296 93.8362 47.4411 93.4311C47.4411 92.6177 47.6527 92.01 47.8611 91.3992C48.2826 91.6017 48.6994 91.6017 49.1225 91.8043C49.7525 92.2158 49.7525 92.6177 49.7525 93.2253C49.7525 94.2413 49.7525 94.4438 49.5473 95.0562V96.0722C49.5473 97.0881 49.7525 97.8999 49.7525 97.8999H51.4436C51.4436 96.0722 51.6455 96.2747 51.8603 95.2588C52.0719 94.4438 51.8603 94.0419 52.0719 93.4311C52.0719 93.0228 52.2802 92.6177 52.4983 92.4151C53.1282 92.01 53.5481 92.01 54.388 92.2158C54.388 92.8202 54.388 93.4311 54.1829 94.0419C53.9649 95.0562 53.7565 96.0722 53.3333 97.0881C53.3333 97.2907 53.1282 97.6958 52.9134 97.8999H55.4411C55.4411 97.8999 55.8579 97.0881 56.0743 96.0722C56.6961 96.6798 57.5457 96.2747 57.964 96.2747C58.602 96.0722 59.022 95.4613 59.4371 95.0562C58.602 94.4438 56.6961 94.6448 56.6961 93.8362C56.2826 92.4151 56.6961 92.2158 56.6961 91.3992C56.6961 90.1823 55.4411 89.774 54.1829 89.5683C53.7565 89.3689 52.9134 89.3689 52.4983 89.3689C52.0719 89.5683 51.6455 90.1823 51.2352 90.1823C51.2352 90.1823 50.3872 89.5683 49.7525 89.3689C49.3341 89.3689 48.0678 88.9606 48.0678 88.9606C48.2826 88.5587 48.491 88.1504 48.6994 87.9447C48.9077 87.7453 49.5473 87.1345 49.7525 87.1345C50.1789 86.9335 50.8072 87.1345 51.2352 87.3371C52.2802 87.5396 53.1282 87.7453 53.3333 87.7453C53.5481 87.7453 54.1829 88.1504 54.1829 88.1504C54.8031 87.7453 54.8031 87.3371 55.2263 87.3371C56.4878 86.9336 56.9142 86.7278 58.1724 86.7278C59.2304 86.7278 60.0751 88.5587 60.7002 89.1664C60.915 89.5683 62.3848 91.3992 63.2328 93.0228C63.6495 92.8202 63.8643 92.4151 64.2826 92.4151C64.2826 92.01 64.0727 90.3849 63.8643 90.1823C63.2328 88.3498 61.9713 87.9447 61.9713 87.5396C62.3848 87.5396 63.2328 87.9447 63.6495 87.9447C64.0727 88.1504 64.7026 88.3498 65.3309 88.7581C65.5457 88.9606 65.9673 89.1664 66.1789 89.3689C66.3872 90.1823 66.3872 90.79 66.8104 91.6017C66.8104 91.8043 66.8104 92.01 67.0188 92.2158C67.6519 90.9941 68.2834 90.79 68.7034 89.774C68.2834 87.9447 67.2271 87.1345 66.1789 86.5285ZM64.4462 95.7657C64.0174 96.6194 63.5869 97.4697 63.5869 97.8999H65.9446C66.5902 97.0479 66.8022 96.1942 66.3717 94.9154C65.7343 95.128 64.4462 94.4835 64.4462 95.7657ZM41.8583 75.6002C42.4769 75.3978 42.8831 74.9897 43.5033 74.7873C43.9094 74.5848 44.3249 71.3379 44.3249 71.3379C44.3249 71.3379 43.094 71.5371 42.8831 71.7428C42.6769 71.7428 41.8583 71.7428 41.4506 72.1476C41.4506 72.7565 41.4506 73.3638 41.2476 74.1768C40.8352 74.7873 39.8104 75.1921 39.8104 76.2075C39.8104 76.2075 40.6321 76.4115 40.8352 76.4115C41.2476 76.2075 41.6553 75.8026 41.8583 75.6002ZM21.4513 52.1552V53.1592C21.4513 53.564 21.6703 55.7776 21.6703 56.38C21.8827 56.9855 21.8827 57.5879 22.0918 58.1919C22.3157 58.5935 22.5281 58.9951 22.5281 59.3999C22.5281 59.3999 22.9595 59.2023 23.1686 58.7943C23.814 58.1919 24.0329 57.5879 24.461 56.7847C24.2453 55.376 23.814 54.1664 23.814 53.7648C23.814 52.1552 24.0329 51.7505 24.2453 50.7449C23.3908 51.1449 22.3157 51.7505 21.4513 52.1552ZM49.6365 80.8883C49.8384 80.8883 50.0433 80.479 50.0433 80.479C49.8384 79.6555 49.6365 78.6322 49.4408 77.8104C49.4408 77.8104 48.8305 77.3978 48.2341 77.3978C47.8319 77.3978 47.4313 77.1932 47.0337 77.3978C47.2294 78.0182 47.2294 78.4308 47.4313 79.0448C48.0292 79.8618 48.8305 80.2711 49.6365 80.8883ZM30.9815 59.0137C30.7829 58.6099 30.181 58.408 29.7822 58.2061C29.3789 58.2061 28.9755 59.0137 28.9755 59.8244C28.9755 60.2282 29.1803 61.6494 29.3789 62.2551C29.3789 62.457 29.7822 62.6621 30.181 62.8672C30.7829 63.2678 31.3818 63.4697 31.9852 63.8766C31.9852 63.8766 31.3818 62.0564 31.1832 61.0422C30.9815 60.4365 31.3818 59.6225 30.9815 59.0137ZM35.6619 65.3689C35.8745 64.5381 36.4998 64.1235 36.4998 62.6692C36.4998 62.6692 36.2935 61.6295 36.0872 61.2133C35.8745 60.7987 35.6619 60.3841 35.0399 59.9695C34.8288 59.9695 34.4163 59.5484 34.21 59.7557C34.21 59.7557 33.9973 61.4206 33.791 61.6295C34.21 62.2514 34.6257 62.6692 34.8288 63.2911C35.0399 63.9162 35.2461 64.7454 35.6619 65.3689ZM41.3326 68.6518C41.9707 68.0342 41.3326 67.0069 41.3326 66.3924C41.1139 65.7747 41.3326 65.1587 41.1139 64.541C40.9017 64.1314 40.4675 63.9265 40.0432 63.9265C39.6139 63.9265 38.5432 63.3089 38.5432 63.7185C37.4708 63.7185 38.331 64.7458 38.331 65.3619C38.331 66.1844 40.4675 68.239 40.4675 68.239C40.9017 68.4438 40.9017 68.239 41.3326 68.6518ZM20.9744 51.3418C21.4037 50.72 22.6867 49.4765 23.3208 48.6431C23.755 48.2297 24.6103 47.1945 26.7421 46.1576C26.9551 45.3275 27.1697 44.7074 27.1697 43.8805C25.0331 44.5007 23.5371 44.9173 23.116 45.3275C22.046 45.9509 21.6151 46.3676 20.5484 46.991C20.5484 48.2297 20.5484 48.2297 20.7598 48.8531L20.9744 51.3418ZM53.655 74.3208C53.0069 73.9239 51.9316 72.7301 51.2934 72.1332C50.8564 71.7363 51.0691 71.141 50.6403 70.741C50.2149 70.741 49.7795 70.741 49.3524 70.9394C48.7042 70.9394 48.2788 70.9394 47.6356 71.141C47.8483 71.5348 47.8483 71.9348 48.2788 72.1332C49.1363 72.9286 49.1363 73.1301 49.9955 74.3208C50.2149 74.7208 51.2934 74.9193 52.1476 74.9193C52.583 74.9193 53.4356 74.5224 53.655 74.3208ZM45.5249 62.9813C44.6517 63.1796 42.9169 63.378 42.9169 63.9761C42.6991 64.5711 42.9169 65.1676 42.9169 65.5674C43.1398 65.9641 43.1398 66.3607 43.1398 66.9588C43.1398 67.3555 42.9169 67.7553 43.1398 68.3534C43.3577 67.9536 44.4405 67.5569 44.6517 67.1572C45.0891 66.5622 45.5249 66.1655 45.7394 65.5674C45.9573 64.9708 45.7395 63.9761 45.5249 62.9813ZM48.1019 62.7981C47.4603 63.2085 47.0337 63.4137 47.0337 63.8241C47.0337 64.6482 47.2437 65.4707 47.2437 65.8844C47.2437 66.5032 47.2437 66.9137 47.4603 67.1189C48.1019 67.3241 48.3219 67.3241 49.1818 67.7345C49.1818 67.943 50.0433 68.3534 50.0433 68.3534C50.0433 68.3534 49.6167 66.5032 49.3984 65.6759V62.3844C48.5352 62.5896 48.3219 62.7981 48.1019 62.7981ZM23.7039 43.4776C23.908 43.2767 26.1805 41.6789 26.3815 41.4796C26.7945 41.0809 27.0018 41.2802 27.1997 40.8816C27.1997 39.6808 27.6206 39.6808 27.4133 39.2853C27.1997 38.8804 25.5586 39.2853 25.144 39.2853C24.1153 39.4815 22.2574 40.0779 22.2574 40.4797C22.0533 41.0809 22.0533 42.4762 22.0533 42.6818C22.2574 43.2767 22.2574 43.8794 22.4584 44.4774C23.0867 43.8794 23.2845 43.6801 23.7039 43.4776ZM68.8033 79.7055C68.6046 79.505 68.2041 79.3013 67.8005 79.0976V79.9108C67.8005 80.7255 67.9961 80.9324 67.9961 81.343C67.9961 81.7504 68.6046 84.6102 68.6046 85.425C69.6059 85.6319 69.6059 86.4499 70.2082 86.8573C70.2082 86.8573 69.8046 84.4065 69.8046 81.343C69.8046 81.1361 69.2085 79.9108 68.8033 79.7055ZM56.3276 72.1356C57.1591 72.7299 58.8172 72.5313 60.2763 72.3342C59.4384 71.7352 59.2346 71.3348 58.8172 70.9407C58.1912 70.5403 57.7835 70.3417 56.9504 69.5472H54.2569C54.6663 70.5403 54.8686 71.1393 56.3276 72.1356ZM48.1711 58.901C48.5956 58.5039 49.0137 57.7113 49.0137 57.5096C49.4414 56.7154 49.4414 55.7195 49.4414 54.9222C47.7547 53.9248 45.6402 53.7294 43.529 53.7294C41.6268 53.7294 39.5139 53.9248 37.4027 55.3224C37.6182 56.1198 37.8239 56.7154 38.2501 57.5096C38.4591 57.5096 38.6713 57.9098 38.8771 57.9098C39.3016 57.5096 39.7278 56.914 40.3548 56.7154V57.5096C40.3548 58.1068 40.3548 58.5039 40.5736 59.1058C40.5736 59.6984 41.2071 59.6984 42.048 59.6984C42.8906 59.6984 43.1077 58.3054 43.1077 58.1068C43.1077 58.1068 43.32 58.901 44.5805 59.4998C44.5805 59.4998 46.0582 59.4998 46.0582 59.3013C46.2737 58.3054 46.4876 58.1068 46.2737 57.3111C46.2737 57.3111 47.5424 58.1068 48.1711 58.901ZM54.8588 66.6519C53.9973 65.4127 53.784 64.1751 53.784 63.9691C53.354 63.5539 54.2106 62.1119 53.1341 62.1119C52.7091 61.8994 51.4159 61.489 51.4159 61.489C51.191 62.1119 51.191 63.3479 51.4159 63.9691C51.4159 64.5871 52.4858 66.4492 52.9191 66.6519C53.1341 66.8611 54.2106 66.8611 54.4338 66.8611C54.6439 66.6519 54.8588 66.6519 54.8588 66.6519ZM22.4721 39.7022C22.9008 39.0992 22.9008 39.0992 23.3262 38.6888C24.1853 38.0826 24.614 37.6753 25.6775 36.8639C25.8886 36.4566 26.1029 36.6618 26.7427 36.2577C26.9554 36.0572 27.1697 35.852 27.1697 35.6499C27.1697 35.2458 26.9554 34.8385 26.7427 34.4376C26.5283 34.0303 26.1029 33.0168 26.1029 32.8116C26.1029 31.1935 26.3205 30.7894 26.5283 29.3686C25.6775 29.1666 24.614 29.1666 24.1853 29.978C23.7598 30.5873 23.7598 31.1935 23.7598 31.8061C23.7598 32.8116 23.9709 33.6262 24.1853 34.8385C23.3262 35.4511 22.9008 35.852 22.0533 36.2577C22.2643 37.4732 22.4721 39.7022 22.4721 39.7022ZM64.7908 69.2925C64.3782 68.8807 63.9671 68.4705 63.3466 68.0554C62.5133 67.8495 62.107 67.4345 61.6849 66.6108C61.4801 66.199 61.2754 65.784 60.858 65.3689C60.4517 65.3689 60.2438 65.578 59.8312 65.784C59.4138 66.199 58.5821 66.199 58.1695 66.8167C58.3742 67.2286 58.5821 67.6436 58.998 68.0554C59.209 68.2613 59.4138 68.6764 60.2438 69.0866C61.6849 69.9102 62.107 70.1161 62.107 70.1161C63.3466 70.3253 64.7908 69.2925 64.7908 69.2925ZM54.5579 60.2953C54.5579 60.2953 54.7596 61.3241 55.1758 62.3481C55.3871 62.7603 55.797 63.1692 56.0099 63.1692C56.4165 63.3737 57.2521 63.5782 57.8685 63.5782V63.1692C57.2521 62.5526 56.4165 61.1196 56.4165 60.7074C56.0099 60.5062 56.0099 60.5062 55.3871 60.5062C55.1758 60.2953 54.7596 60.2953 54.5579 60.2953ZM73.415 74.9193C73.2198 75.5177 72.616 75.9146 72.616 76.71C72.616 76.71 73.6193 77.7022 73.8206 78.3038C74.0204 78.7007 73.8206 80.4914 74.0204 80.8883C74.6212 80.2898 75.0237 80.0914 75.0237 79.2991C74.8194 79.1007 74.6212 77.5038 74.4199 76.3131C74.4199 75.9146 73.8206 75.3193 73.415 74.9193ZM90.1463 89.2449C89.1105 89.2449 87.8753 90.4524 87.053 94.2741C86.8474 95.6871 86.6402 96.8978 86.8474 97.6976L88.6977 97.8999C89.1105 97.2961 89.1105 96.2893 89.5248 95.4833C89.5248 95.0818 89.9423 95.0818 90.3472 95.0818C90.7631 95.2825 91.5918 96.2893 91.9983 96.6908C92.2054 96.2893 92.6166 95.4833 92.6166 94.8779C92.6166 94.674 91.9983 94.2741 91.7927 94.2741C91.1775 93.8727 90.7631 93.4712 89.9423 93.4712C89.732 92.6652 90.9671 91.6583 90.9671 91.6583C92.4095 91.6583 93.8549 93.2673 93.8549 93.2673C94.2661 93.0666 94.4701 92.4644 94.8877 92.063C93.6478 89.847 91.3815 89.2449 90.1463 89.2449ZM79.2373 78.4411C79.0331 78.0351 78.8319 77.4276 78.6354 77.0248C78.6354 76.8233 78.6354 76.4205 78.4311 75.8146C78.4311 75.8146 77.0276 76.8233 76.8295 77.0248C77.6296 78.0351 77.2319 78.6457 77.4253 79.4514C77.4253 79.8511 78.233 80.0541 78.4311 80.6615C78.4311 80.8598 78.038 82.679 78.038 82.679C79.2373 81.0644 79.2373 79.0454 79.2373 78.4411ZM96.3395 96.2471C96.1323 96.8715 95.9154 97.2803 95.4896 97.6923C95.7049 97.8999 96.1323 97.8999 96.3395 97.8999H98.4748C98.6755 97.6923 98.6755 97.0743 98.8908 96.6591C98.8908 96.2471 99.1012 95.8318 99.1012 95.2139H97.8239C97.1894 95.2139 96.5532 95.6291 96.3395 96.2471ZM67.651 66.3574H68.6897C69.1093 66.3574 69.1093 65.5656 68.6897 65.5656C67.2314 65.1665 65.987 64.7722 65.1558 63.5782C64.95 63.7793 63.6976 64.1721 63.286 64.5711C63.286 64.5711 63.6976 65.5656 64.7378 66.5585C65.3584 67.1523 66.614 66.7564 67.651 66.3574ZM58.4705 59.6233C59.0971 60.4469 59.7189 61.0597 60.3392 61.6742C60.5406 62.0859 61.1625 62.0859 61.5717 62.0859H63.6419C64.2637 61.8752 64.6762 61.8752 65.0918 61.4683C64.2637 61.0597 63.2326 60.6479 62.3998 60.2362C61.5717 59.8276 60.9562 59.4191 60.3392 58.803C59.9204 58.803 59.7189 59.0073 59.5047 59.0073C59.0971 59.218 58.8861 59.4191 58.4705 59.6233ZM36.4998 49.7406C36.4998 49.7406 37.3292 49.5511 37.9572 49.5511C38.3775 49.5511 38.793 49.5511 39.2085 49.7406C38.9959 49.9301 38.1633 50.3091 38.1633 50.3091C37.7542 50.4986 37.5417 50.6867 36.9137 50.8762C36.7075 50.4986 36.4998 49.7406 36.4998 49.7406ZM36.3658 45.3957C36.7771 44.7904 37.6123 44.3869 38.2315 44.1851C39.0572 43.9834 38.846 42.3645 38.846 42.1628C39.0572 41.7561 38.846 41.1508 38.846 40.7441C38.4364 40.949 38.4364 40.7441 37.6123 40.949C36.7771 40.949 36.3658 40.5423 35.9561 40.1357C35.5338 39.7337 34.5048 38.9235 34.092 38.1196C35.1209 37.9115 35.9561 37.9115 36.9882 37.9115H39.6796C40.2941 38.1196 40.7133 38.5232 40.7133 38.9235C40.7133 39.1253 40.5085 40.3406 40.5085 40.5423C40.2941 41.7561 40.2941 42.1628 40.0925 43.9834V44.5887C39.8845 44.9954 39.0572 45.1971 38.6444 45.6006C38.4364 46.2059 38.4364 46.6126 37.8139 46.8144C37.1899 47.0193 36.7771 47.623 36.3658 47.4212C35.745 47.0193 35.9561 46.0042 36.3658 45.3957ZM32.9545 34.927C32.5248 34.5333 31.667 33.9348 31.2405 33.1379C30.6058 32.3426 30.8141 31.5488 30.8141 31.3472C31.2405 30.1534 32.7364 29.7534 33.5975 29.5549C34.0206 29.5549 34.4503 29.5549 35.09 29.955C35.9462 30.3518 36.3759 30.3518 36.8007 31.7441C36.8007 31.9488 36.8007 32.141 36.5875 32.141C36.5875 32.141 35.3016 32.9363 34.8735 33.3395C33.809 33.9348 33.5975 34.927 32.9545 34.927ZM39.0372 34.8168C39.6562 34.3949 40.2672 33.9763 40.684 33.9763C41.0977 33.767 41.9172 33.5544 41.9172 33.9763C41.9172 34.8168 41.3014 35.2354 40.684 36.0727C40.2672 36.6989 40.0667 36.2853 39.0372 36.2853H38.0046C38.0046 35.6574 38.4199 35.4448 39.0372 34.8168ZM47.6644 33.8285C48.067 33.8285 51.5365 34.608 49.295 35.5786C48.8815 35.9699 47.8665 35.7727 46.8436 35.7727C46.8436 35.3875 46.8436 34.608 46.4395 34.608C46.0244 34.2168 45.4182 34.2168 45.4182 33.8285C44.5959 33.049 46.6416 33.6344 47.6644 33.8285ZM51.8447 29.9448C52.4927 29.3326 53.3583 29.1296 54.2124 29.3326C55.2874 29.5356 55.5001 29.7386 55.9321 30.1478C56.5784 30.9631 56.3657 32.5904 56.1448 33.6071C55.9321 34.2194 55.2874 34.6286 54.6444 34.6286C53.5677 33.4073 52.4927 32.5904 50.9889 32.1812C50.7729 31.3691 51.4259 30.5539 51.8447 29.9448ZM53.2311 38.5318C53.0192 38.9378 52.5921 39.1424 52.1683 39.3535C51.9514 39.3535 51.7477 39.7595 51.7477 39.9641C51.3157 40.5796 50.6816 40.7842 49.8339 40.7842C49.4051 40.7842 48.5575 40.7842 48.132 39.9641C48.132 39.9641 48.3406 42.4275 48.3406 43.0414C48.3406 43.246 48.5575 43.246 48.5575 43.246C49.4051 43.4506 49.6187 44.2739 50.0409 44.6831C50.0409 44.6831 50.2545 44.8877 50.4713 44.8877C51.3157 45.5016 53.2311 46.3232 52.3818 46.3232C52.3818 46.7357 51.7477 47.7604 51.5374 47.7604C50.8918 47.1481 49.8339 46.7357 48.978 46.3232C48.7677 45.914 48.5575 45.5016 48.3406 45.0956C47.9217 44.6831 47.7081 44.6831 47.0675 44.2739C47.0675 42.84 46.8572 42.84 46.8572 41.4012C46.8572 41.1966 46.4317 38.9378 46.4317 38.9378C46.4317 38.7332 47.0675 38.1226 47.7081 37.9115C47.7081 37.9115 51.7477 37.9115 53.655 38.1226C53.655 38.1226 53.4479 38.5318 53.2311 38.5318ZM50.737 51.0433C49.9033 50.827 49.2805 50.1764 48.2375 50.1764C48.2375 49.5309 48.2375 49.5309 48.4499 49.3112C49.7005 49.0949 50.325 49.5309 50.9462 49.7472C50.9462 49.9635 50.737 51.0433 50.737 51.0433ZM37.1275 53.9593C37.7577 53.9593 38.3862 53.3505 39.0132 53.1433C40.2624 52.7353 41.3127 52.3273 42.5618 52.1233C42.9867 51.9129 42.9867 51.5081 42.9867 51.0968C43.1968 50.6904 43.1968 50.6904 43.1968 50.0784C43.1968 49.8744 42.3582 49.6704 41.938 48.848C41.5211 48.2328 41.938 47.6207 41.728 47.6207C41.1058 48.0288 40.2624 48.4368 40.0587 47.6207C39.8486 47.0103 39.8486 46.1879 40.4788 45.9839C42.5618 45.1679 44.8661 45.1679 46.9619 45.9839C47.3756 45.9839 47.5856 46.3951 47.5856 46.8031C47.7925 47.2111 47.5856 47.6207 47.1655 48.0288C46.5385 48.2328 45.9068 47.4167 45.9068 48.0288C45.9068 48.6408 45.493 49.4632 44.4443 49.8744C44.2407 50.0784 44.4443 50.6904 44.6592 51.3041C44.6592 51.5081 44.6592 51.9129 44.8661 51.9129C45.7031 52.1233 46.9619 52.3273 47.5856 52.7353C48.4179 53.1433 49.8803 54.3673 50.0935 54.1665C50.7173 53.7585 50.9242 53.1433 51.3491 52.7353C53.6453 53.7585 55.5247 54.3673 58.4559 56.2146C58.8728 56.2146 58.8728 55.3954 58.8728 54.9842C57.8225 54.3673 54.6844 52.7353 54.2723 52.5281C53.4385 52.3273 53.0216 51.9129 52.1797 51.7121V50.0784C53.6453 50.4864 56.5637 50.6904 59.5014 52.3273C59.705 51.7121 60.1284 51.3041 59.9183 51.0968C56.5638 49.4632 54.0687 48.848 51.9729 48.848C51.9729 48.6408 51.5495 48.4368 51.9729 48.2328C52.5998 47.8248 52.8083 47.6207 53.0216 47.4167C53.6453 46.5991 54.0687 45.7799 54.2723 44.9639C54.8977 43.7366 55.5247 44.1446 55.9464 41.4846C55.3178 41.4846 55.1045 41.8926 54.4808 42.0998C54.6844 41.4846 54.8977 40.8726 54.8977 40.2573C55.1045 39.0285 55.5247 38.2125 55.5247 36.778C56.1532 36.5708 57.2003 35.9604 57.4072 35.1444C57.4072 34.9372 57.4072 34.3252 57.6189 33.5059C57.6189 32.2803 57.8225 31.2571 57.4072 30.4378C57.4072 30.2338 55.9464 28.189 54.8977 27.577C53.4385 26.9617 52.8083 27.169 51.7628 27.3697C50.5073 27.3697 48.8316 28.597 48.8316 30.8491C47.5856 30.8491 45.0729 31.0531 43.6105 32.2803C42.3582 31.6651 41.3127 31.4643 40.2624 31.2571H38.3862C38.1794 30.4378 37.7577 29.6186 36.9238 29.0066C35.8815 28.3962 34.6196 27.577 33.1572 27.577C32.5302 27.577 31.9064 27.3697 31.2778 27.7842C30.6509 28.189 29.6054 28.597 29.3985 29.4146C28.9784 30.4378 28.5615 31.2571 28.5615 32.2803C28.5615 33.3051 29.1917 34.1211 29.8186 35.1444C30.0207 35.5556 30.2339 35.5556 30.6509 35.7564C30.8609 35.7564 31.6996 36.1676 31.9064 36.37C32.1133 36.5708 31.6996 37.1892 31.6996 38.4197C31.6996 39.4397 31.6996 39.4397 31.9064 40.2573C31.9064 41.0766 32.1133 41.8926 32.3233 42.5046C31.6996 42.5046 31.2778 41.8926 30.8609 42.3038C30.8609 42.715 31.2778 43.7366 31.6996 44.5527C32.7434 45.5759 33.7857 46.5991 34.4159 47.8248C34.4159 48.0288 34.4159 48.4368 34.6196 48.4368C33.1572 48.6408 31.6996 48.6408 30.2339 49.0552C28.9784 49.4632 27.516 50.0784 26.2668 50.6904C26.2668 51.5081 26.4705 52.1233 26.4705 52.1233C26.6805 52.1233 28.5615 51.0968 30.2339 50.6904C32.9503 49.8744 34.4159 50.0784 34.4159 50.0784C34.6196 50.4864 34.8312 51.0968 34.6196 51.3041C32.1133 52.3273 29.6054 53.5545 27.2995 54.9842C27.516 55.3954 27.2995 56.0074 27.726 56.4154C29.8186 55.1882 32.7435 53.7585 34.8312 52.9393C35.6683 52.7353 35.6683 52.9393 36.0884 52.9393C36.2952 53.1433 36.7106 53.9593 37.1275 53.9593ZM77.1305 72.0511C77.1305 72.0511 76.73 71.2557 76.73 71.0615C76.5313 70.6637 76.3326 70.0687 75.7287 69.8714C75.7287 69.6741 75.5269 70.6637 75.3282 71.0615C75.1233 71.4561 75.1233 71.2557 74.7228 72.0511C75.1233 72.6415 75.3282 73.0361 75.7287 73.6312C75.7287 73.8285 76.3325 74.6208 76.3325 74.6208C76.3325 74.6208 77.1305 73.0361 77.1305 72.6415V72.0511ZM103.802 95.6666H102.768C102.356 95.4609 102.149 95.4609 101.944 95.6666C101.322 96.2744 101.322 97.2905 100.907 97.8999H103.39C103.802 97.4899 104.218 97.2905 104.218 96.4738C104.218 96.2744 104.218 95.866 103.802 95.6666ZM74.7228 67.6569C74.7228 65.8654 74.2859 65.8654 73.4105 65.0704C73.4105 65.0704 72.7502 66.2653 72.315 66.8604C73.1904 67.6569 73.4105 68.6518 73.4105 68.6518C74.2859 67.8553 74.2859 68.0536 74.7228 67.6569ZM82.8489 74.846C82.8489 74.2375 82.6362 73.6322 82.2188 73.2255C82.0028 72.6202 81.7933 71.8115 81.7933 71.4048C81.574 71.0044 80.7327 69.7874 80.3088 69.1821C79.8866 68.7801 79.8866 67.7681 79.6738 67.1596L77.1305 67.5631C78.4054 69.1821 79.4676 70.7995 80.0928 72.42C80.3088 73.0269 82.2188 79.0976 82.2188 79.0976C82.8489 78.8926 82.0028 75.8581 82.2188 75.6563C82.4234 75.2528 82.4234 75.0478 82.8489 74.846ZM67.0442 58.5998C66.8328 58.2013 66.4035 57.4027 66.1888 57.2035C65.979 56.805 65.7611 56.4065 65.5431 56.2041C65.335 56.008 64.4796 56.2041 64.0551 56.2041C63.6258 56.2041 63.4143 56.2041 62.985 56.4065C63.4143 56.805 63.8372 58.2013 64.0551 58.2013C64.2665 58.5998 64.2665 58.799 64.6942 59.0045C65.7611 59.2007 66.6149 59.0045 67.685 59.3999C68.1062 58.799 67.2556 58.799 67.0442 58.5998ZM72.616 63.2233C72.616 63.2233 70.0578 61.7974 69.6292 61.1906C68.9913 61.1906 68.9913 61.1906 68.3517 61.7974C67.9199 61.7974 67.7122 62.0066 67.4995 62.4089C68.1407 62.8209 68.3517 63.0205 68.9913 63.4261C69.2072 63.6289 69.4182 63.6289 70.0578 63.4261H71.7671C72.1858 63.4261 72.616 63.6289 72.616 63.2233ZM108.009 93.4232C108.009 93.4232 107.791 94.0558 107.573 94.4721C107.141 95.5261 106.926 95.9457 106.926 96.575C107.573 97.0045 107.791 96.7881 108.661 96.7881C109.094 96.7881 109.526 97.0046 109.744 97.0046C110.176 96.7881 109.744 96.3686 109.744 96.1588C109.526 96.1588 108.661 94.2623 108.009 93.4232ZM85.7059 75.8146C86.5674 75.2018 86.7852 73.9696 87.0031 73.3567C87.221 72.7407 86.7852 71.5133 86.5674 71.1047C85.9204 71.1047 85.493 70.6929 85.0507 70.6929C84.6183 70.6929 84.4037 69.6683 83.7518 69.8726C83.9697 70.2844 84.4037 72.3337 84.6183 72.7407C84.8395 72.9482 85.7059 74.3814 85.7059 75.8146ZM101.81 87.0057C101.81 86.8043 101.146 86.3983 100.934 86.3983C100.934 86.1922 100.703 85.3771 100.481 85.1773C100.047 84.9711 100.047 84.7681 99.6043 84.7681C99.6043 84.9711 99.6043 85.1773 99.3829 85.5832C99.3829 85.9892 98.9401 86.1922 99.1649 86.5981C99.3829 87.0057 99.6043 87.0057 100.047 87.2087C100.265 87.4117 100.934 89.0419 101.146 89.2449C101.367 89.0419 101.367 87.8176 101.81 87.0057ZM65.109 53.9222C65.7486 53.9222 66.1702 54.3263 66.5966 54.3263C66.5966 53.7234 66.3801 53.3194 66.1702 52.7102C65.957 51.697 65.5322 51.0878 65.3157 50.4833C65.3157 49.8773 65.3157 49.4701 65.109 49.0661C64.899 49.0661 64.6826 49.0661 64.4726 48.8609C63.8378 48.8609 62.985 48.6557 62.985 48.6557C62.985 49.2681 63.2015 50.2781 63.2015 50.8858C63.2015 51.0878 64.0478 52.9122 64.2594 53.1142C64.4726 53.5214 64.6826 53.7234 65.109 53.9222ZM85.2567 67.368C85.0473 66.7427 84.416 66.531 83.9924 66.1142C83.9924 66.1142 81.2463 65.0704 80.8178 65.0704C80.3942 65.2772 81.8776 66.1142 82.087 66.531C82.9326 67.368 85.0473 69.2487 85.0473 69.2487L85.2567 67.368ZM59.3681 41.7914C59.1589 41.9933 58.9431 42.4004 58.9431 42.5992C58.5182 43.2082 57.8904 43.6137 58.3057 44.2227C58.5182 45.0337 58.5182 45.8415 59.1589 46.4506C59.7948 47.0596 60.635 46.8545 61.4801 47.4619C61.4801 47.4619 60.8443 44.8286 60.429 43.6137C60.2165 42.8075 59.7948 42.4004 59.3681 41.7914ZM99.4499 57.1161C96.7296 54.469 93.794 52.834 90.8632 52.834C88.3534 52.834 86.4638 54.666 86.4638 56.506C86.4638 63.8467 89.4011 68.5387 91.2842 72.6126C91.9092 73.6327 92.1181 74.4494 92.1181 75.4694C92.3286 78.1213 90.0293 83.0135 88.5607 85.6654C88.3534 85.4588 87.301 85.2586 86.4638 85.2586C84.3702 85.2586 83.5331 86.6823 83.1121 87.9041C82.4838 87.9041 82.0709 87.4974 81.433 87.4974C78.9248 87.294 76.8295 89.5343 76.8295 91.986C76.8295 94.6315 77.453 96.0647 78.5054 97.8999H80.6007C80.3886 97.2882 79.7635 94.2263 79.5531 93.4128C79.349 92.1926 79.7635 91.3727 80.3886 90.761C81.2289 89.5343 83.3194 89.9475 83.3194 89.9475C82.6943 90.9659 81.8572 92.5961 81.8572 94.2263C82.0709 95.248 82.2733 96.8846 82.908 97.8999H84.5839C84.9952 96.6748 84.5839 95.658 84.5839 94.6315C84.5839 94.0262 84.5839 93.4128 84.788 92.7995C84.788 92.3928 85.8356 93.6162 85.8356 93.6162C85.8356 93.6162 86.6743 92.5961 86.6743 91.7794C86.6743 91.1693 85.421 91.3727 85.2154 90.761C84.9952 90.1508 85.6283 88.7208 85.6283 88.7208C86.8848 87.9041 87.9292 88.1107 88.3534 88.1107C88.9769 88.1107 89.1841 88.3109 90.0293 88.3109C90.6527 88.3109 90.8632 87.0906 90.8632 86.4821C91.0705 86.6823 91.7052 87.0906 91.9092 87.0906C92.5359 87.294 92.7464 87.294 93.3746 87.4974C94.215 87.9041 95.0537 88.3109 95.8941 89.1308V88.9242C95.6804 88.1107 96.0981 87.0906 95.4731 86.6823C95.4731 86.6823 94.4223 85.8656 93.5851 85.4588C93.1674 85.0521 92.5359 85.0521 92.3286 84.6453C92.1181 84.4419 92.1181 84.2354 92.1181 83.8286C92.1181 83.4203 92.3286 82.8101 92.5359 82.8101C92.9537 82.6036 93.1674 82.8101 94.0045 83.2137C94.8432 83.6252 95.6804 84.2354 96.3086 84.6453C96.3086 84.6453 96.5159 85.0521 96.5159 84.8487C97.3563 84.4419 97.3563 84.2354 97.3563 83.0135C96.5159 81.9902 97.3563 81.7901 96.0981 80.9734C95.6804 80.9734 93.3746 80.1567 93.3746 80.1567C93.3746 79.7483 94.0045 78.7314 94.0045 78.7314C94.215 78.5313 94.6295 78.5313 94.8432 78.9348C96.0981 79.7483 96.9353 79.7483 98.2014 80.1567C98.3991 79.5481 98.3991 79.1414 97.9845 78.7314C97.5603 78.1213 96.9353 77.5048 96.5159 77.3014C95.6804 77.098 95.261 76.8947 94.6295 76.6913C94.6295 76.0796 94.4223 75.4694 94.215 74.6527C94.215 74.2428 94.6295 74.4494 95.0537 74.4494C95.8941 74.2428 99.4499 75.4694 99.4499 75.4694C99.4499 74.6527 99.2394 74.0394 98.8184 73.6327C98.3991 73.2227 97.9845 72.816 96.9353 72.4108C95.4731 72.0009 94.215 72.2074 93.1674 71.5941C92.3286 70.7774 92.1181 70.574 91.9092 69.7573C92.5359 69.5572 93.5851 69.3506 94.215 69.3506C95.261 69.3506 95.8941 69.1472 97.149 69.5572C97.5603 69.7573 99.0321 70.984 99.6636 70.984C99.6636 70.984 99.2394 69.3506 98.8184 68.7421C98.2014 68.7421 97.149 67.5154 96.7296 67.312C94.6295 66.4953 94.215 66.9053 92.9537 67.1087C92.3286 67.312 91.7052 67.1087 91.0705 67.1087C90.8632 66.7019 91.4915 66.0886 91.2842 65.6818C91.2842 65.4753 90.4406 65.2719 90.4406 64.8667C90.4406 64.8667 93.794 64.4568 95.0537 64.6602C95.4731 64.8667 96.7296 65.6818 97.149 65.6818C97.149 65.6818 97.5603 64.2502 96.9353 63.03C95.8941 62.8298 94.8432 63.03 94.0045 62.8298C93.1674 62.6232 92.3286 62.8298 91.7052 62.8298C91.0705 62.8298 90.4406 62.6232 89.8156 62.6232C89.401 62.0131 89.1841 61.3982 89.1841 60.788C89.1841 60.788 94.4223 60.5815 94.8432 60.3813C94.6295 60.1715 94.215 59.9745 94.0045 59.5614C93.1674 58.1346 92.5359 57.9328 91.4915 57.9328C90.8632 57.9328 89.401 58.5413 88.5607 58.3379C88.5607 56.7093 89.4011 55.2825 90.6527 55.2825C93.1674 55.2825 95.6804 56.2994 97.774 58.5413C103.015 63.8467 105.732 73.836 105.732 80.9734C105.732 84.2354 105.315 87.294 104.899 89.7409C105.525 89.9475 105.94 89.9475 106.571 89.9475C107.204 87.4974 107.829 84.2354 107.829 81.1767C107.829 70.7774 104.057 62.0131 99.4499 57.1161ZM67.8005 48.6668C68.227 50.2944 68.8587 52.329 69.072 54.7624C69.072 55.3768 68.8587 55.9848 69.072 56.5959L72.014 57.6092C72.014 57.6092 71.6004 55.1709 71.1772 52.329C70.7555 49.8923 70.5438 49.0785 69.9121 48.0588C69.4888 48.2615 69.2804 48.2615 68.8587 48.2615C68.227 48.4641 67.8005 48.6668 67.8005 48.6668ZM74.7203 60.531C75.1428 60.9333 75.3508 61.7397 75.562 63.1511C75.7716 63.959 76.194 64.1602 76.61 65.3689C77.2437 64.9681 78.295 65.1693 78.295 65.1693C78.295 64.1602 77.6613 63.1511 77.6613 62.9531C77.4468 62.5444 76.8212 61.3357 76.61 60.9333C76.8212 60.9333 77.4468 61.7397 78.5029 61.7397C78.7174 61.7397 79.3494 61.9377 79.7654 61.7397C79.7654 61.7397 80.3926 62.1452 80.3926 62.5444C80.8135 63.1511 80.8135 63.5535 81.0312 64.1602C81.4407 64.1602 81.6584 64.1602 81.8664 63.959C82.7064 63.959 83.1256 63.7547 83.1256 63.7547C82.9209 63.3523 82.7064 62.9531 82.7064 62.5444C82.4952 62.1452 82.0808 61.1345 82.0808 61.1345L85.8586 60.531C85.8586 59.9211 85.6506 59.1132 85.0153 58.7108C83.1256 59.3207 81.0312 59.5187 79.5542 59.5187C77.4468 59.5187 75.3508 59.1132 72.4082 57.9077C72.1986 58.3084 72.4082 59.1132 72.4082 59.1132C73.6691 60.1286 73.6691 59.5187 74.7203 60.531ZM28.3297 26.8944C29.8065 26.067 32.3247 24.6167 33.163 23.7925C33.3791 24.2078 35.9021 25.655 36.95 26.2698C37.7884 26.8944 38.6315 27.0972 39.4699 27.5093C39.8906 26.8944 40.3066 26.2698 40.7322 24.826C41.3626 25.2413 42.2025 25.2413 42.8296 25.4441C42.8296 26.2698 42.8296 27.0972 43.0457 27.9279C43.0457 28.3367 43.4648 28.1307 44.3064 27.7186C45.5655 27.3065 46.8246 27.0972 47.4582 26.8944C48.9221 26.067 49.7652 24.4139 51.0259 24.4139C52.0803 24.4139 53.9698 25.032 54.3922 25.4441C55.0209 25.655 55.4433 25.8578 56.0753 25.8578C56.9136 25.8578 57.544 25.032 58.1695 24.6167C56.2832 23.3805 54.1874 22.141 52.0803 21.3152C50.818 22.3438 49.9764 23.1712 49.3477 23.1712C48.7141 23.1712 49.1365 21.935 49.1365 21.1059C48.5061 21.1059 48.0837 21.1059 47.4582 20.8999C47.0423 22.3438 46.8246 24.2078 45.7767 24.6167C45.3575 24.826 45.1431 24.826 44.9351 24.826V23.1712C44.9351 22.9651 45.7767 21.5213 45.5655 21.3152C45.5655 21.3152 43.6728 21.7257 43.2569 21.935C43.0457 22.141 41.7801 22.7623 41.5721 22.7623C41.5721 22.7623 40.9402 22.5531 40.7322 22.5531C40.1018 22.141 39.6827 22.141 39.0507 21.7257C38.2124 24.2078 37.9963 24.826 37.9963 24.4139C37.9963 24.4139 35.0541 22.5531 34.0094 21.3152C31.2736 21.7257 31.2736 22.141 28.9617 22.9651C28.1218 23.7925 26.861 24.826 26.0211 26.067C25.6019 26.8944 25.1795 27.3065 24.762 28.1307L26.861 28.958C27.0722 28.7488 28.1218 27.3065 28.3297 26.8944ZM100.942 82.2944C101.528 82.494 101.922 83.8961 102.317 84.2954C102.909 85.097 102.714 82.8964 102.516 82.494C102.516 82.2944 102.516 80.6942 102.122 80.6942C101.922 80.4914 101.726 79.891 101.528 79.6945C101.329 80.2918 101.528 80.6942 101.528 81.2931C101.528 81.6955 100.734 82.0916 100.942 82.2944ZM64.2577 40.6989C64.0464 40.6989 63.4061 40.499 62.5463 40.2991H61.4801C61.6914 40.902 62.335 41.5017 62.5463 41.9015C62.5463 42.1045 62.5463 42.7074 62.7658 43.1041C63.1883 43.1041 63.8286 43.304 64.2577 43.5054C64.4706 43.5054 65.7513 43.7085 66.1787 44.1083C66.6045 44.1083 68.0949 45.7107 68.316 45.9106C68.953 46.3135 69.595 46.7133 70.0175 46.5134C70.4466 46.5134 70.0175 45.9106 70.0175 45.7107C69.1676 44.5081 68.5272 42.3044 68.316 42.3044C67.674 42.1045 67.2449 42.3044 66.3933 41.9015C65.9691 41.5017 64.6851 40.902 64.2577 40.6989ZM60.688 35.8954C60.8985 36.3121 61.3084 36.3121 61.723 36.5171C62.1345 36.9306 62.5507 37.1373 63.1695 37.554C63.9925 38.3841 64.4055 39.4242 65.4358 40.2461C65.8489 40.4561 66.0562 40.6628 66.2603 40.6628C66.4708 40.6628 67.2938 41.2862 67.4995 41.4929C67.4995 39.8343 66.8791 38.594 66.4708 37.7607C66.4708 37.554 66.2603 37.3472 65.8489 37.1373C65.2253 36.5171 64.6097 35.8954 64.4055 35.8954C63.7883 35.2752 63.3737 34.6551 62.7549 34.0317C62.1345 34.0317 61.723 34.6551 61.3084 34.8618C61.1042 35.2752 60.2829 35.6919 60.688 35.8954ZM59.9256 30.6169C59.9256 31.2197 60.1373 31.8289 60.3459 32.4285C61.3776 33.0329 62.6273 33.4348 62.6273 33.4348C62.8327 32.8288 62.414 32.2276 62.414 31.6216C62.0064 30.2118 61.3776 28.8037 61.1722 27.193V26.3829C60.3459 25.9842 59.5085 25.7801 58.4705 25.3766C58.4705 25.3766 58.4705 26.587 58.8876 27.193C59.3047 28.1977 59.9256 29.81 59.9256 30.6169ZM104.444 36.0149L103.616 34.9607L105.888 34.3301L106.926 37.9115L104.444 36.0149ZM96.8706 34.1684L95.6354 34.927L93.9848 33.7891L95.8392 32.8379L97.8973 34.1684H96.8706ZM129.593 73.9485C129.8 72.7288 129.8 71.5107 129.8 70.6965C129.379 70.291 128.744 70.085 128.33 70.085C128.33 69.48 128.116 68.6674 128.33 67.8532C128.744 67.8532 129.593 68.0559 129.593 67.8532C129.593 66.6335 129.379 65.4106 129.173 64.8039C128.744 64.598 128.116 64.3952 127.483 64.1893C127.483 63.581 127.274 62.9727 127.063 62.5672C127.701 62.3613 128.116 62.3613 128.536 62.3613C128.536 62.3613 128.116 60.5317 127.909 59.7175C127.483 59.5148 126.851 59.5148 126.431 59.5148C126.221 59.1125 126.01 58.7006 125.798 58.0923C126.221 57.8912 126.646 57.8912 127.063 57.6884C126.646 56.6715 126.431 56.2628 126.01 55.6545H124.54C124.332 55.249 124.12 54.8403 124.12 54.438C124.332 54.2272 124.749 54.0277 124.962 53.8217C124.749 53.2167 124.332 52.6052 123.906 52.1997C123.486 52.1997 123.064 52.3993 122.644 52.1997C122.436 52.1997 121.801 51.3855 122.013 51.3855C122.221 50.9768 122.644 50.7741 122.856 50.5729C122.221 49.7619 122.013 49.1505 121.38 48.7418C120.96 48.7418 120.543 48.7418 120.117 48.9477C120.117 48.9477 119.696 48.3331 119.487 48.1303C118.853 48.1303 119.909 47.1149 119.909 47.1149C119.276 46.3039 118.648 45.6925 117.806 44.8815C117.377 44.8815 116.957 45.2838 116.748 45.2838C116.748 45.2838 115.907 44.6755 115.907 44.4728C115.907 44.0673 116.748 43.8645 116.748 43.8645C116.748 43.8645 115.272 42.2377 114.223 41.6263C113.803 41.829 113.595 41.829 113.167 41.829C112.538 41.2208 111.695 40.8152 111.695 40.8152C111.695 40.8152 112.33 40.4065 112.33 40.2038C111.277 39.5939 110.854 39.1916 110.013 38.577C109.17 38.1715 108.75 37.56 108.328 36.9486C106.857 34.7167 104.963 31.4647 100.325 30.8532C100.325 30.8532 101.383 32.2757 102.016 33.2942C102.016 33.4938 102.016 33.4938 101.171 33.4938H99.7016C99.2753 32.8824 99.0669 32.6828 98.8522 32.2757C98.4307 31.4647 98.232 31.2587 97.8025 30.8532C96.9595 30.2418 92.7495 32.4784 89.1693 33.2942C90.0187 34.308 90.8568 34.9163 91.0651 35.325C92.1181 36.3403 93.5924 38.1715 94.6421 39.5939C94.8569 39.3912 95.0685 39.1916 95.49 38.9825C98.232 38.577 98.232 37.9719 98.232 37.9719C98.232 37.9719 96.1181 36.3403 97.5877 36.3403C97.5877 36.3403 98.6438 36.5399 99.0669 36.1392C100.118 35.9332 101.383 35.7305 102.016 36.1392C102.855 36.7458 103.275 37.56 103.908 38.1715C103.489 38.1715 103.07 37.9719 102.647 37.9719C101.383 37.7628 100.118 37.9719 99.0669 38.1715C99.0669 38.1715 100.758 39.5939 101.171 40.2038C100.758 39.9979 99.4868 40.2038 99.4868 40.2038C98.8522 40.4065 98.014 40.6093 97.8025 40.6093C97.1743 40.8152 96.538 40.6093 96.1181 40.8152C96.9595 41.2208 100.758 42.6464 102.647 42.6464C104.331 42.6464 105.381 42.4373 106.857 41.829C107.066 41.6263 107.485 41.4235 107.697 41.6263C108.542 41.829 108.961 42.035 109.381 42.4373C114.857 45.6925 120.96 53.4194 122.856 57.4825C124.749 61.3459 125.798 65.6165 125.798 69.6795C126.01 75.1714 124.12 80.4558 120.329 85.1334C118.216 87.7708 114.223 90.0107 110.013 90.4162C111.277 91.8402 111.904 94.0737 112.538 96.1092C112.538 96.1092 114.014 95.9065 114.857 95.5009C114.857 93.8741 113.803 92.0462 113.803 91.6343C113.803 91.6343 115.064 90.8233 116.119 90.8233C116.324 91.4315 116.957 92.4485 117.806 93.8741C118.648 93.4654 119.276 93.0567 119.909 92.4485C119.909 91.4315 119.276 90.2134 118.853 88.9937C120.329 88.3855 121.172 88.1763 121.172 88.1763C121.596 88.7878 122.644 89.396 122.856 90.0107C122.856 90.0107 123.906 88.9937 124.332 87.9768C123.906 87.1625 123.274 86.5527 122.856 85.7385L124.54 83.9137C124.54 83.9137 125.59 84.7247 126.01 85.1334C126.646 84.3192 127.274 83.505 127.483 82.4865C126.431 81.4727 126.01 81.4727 125.798 80.8613C126.221 80.2498 126.431 79.4404 126.851 78.8289C127.483 79.0349 127.909 79.4404 128.33 79.64C128.744 78.8289 129.173 77.606 129.173 76.795C128.744 76.3863 128.116 76.1868 127.701 75.7797C127.909 74.7627 128.116 73.7458 128.116 73.7458C128.116 73.7458 129.173 73.9485 129.593 73.9485Z" fill="white"/>
</g>
</svg>
